<svg width="70" height="70" fill="none" xmlns="http://www.w3.org/2000/svg"><path d="M69.943 9.896a1.168 1.168 0 0 0-.941-.793l-4.18-.608-1.87-3.787c-.391-.798-1.7-.798-2.091 0l-1.87 3.787-4.18.608a1.167 1.167 0 0 0-.648 1.99l3.026 2.948-.714 4.162c-.075.438.105.88.463 1.142.363.263.837.296 1.23.088l3.738-1.966 3.738 1.966a1.168 1.168 0 0 0 1.693-1.23l-.714-4.162 3.025-2.949a1.17 1.17 0 0 0 .295-1.196ZM64.556 12.8c-.275.267-.4.655-.335 1.033l.417 2.437-2.188-1.15a1.165 1.165 0 0 0-1.088 0l-2.188 1.15.417-2.437a1.168 1.168 0 0 0-.334-1.033l-1.773-1.727 2.448-.355c.38-.055.708-.294.879-.639l1.094-2.216 1.094 2.216c.17.345.498.584.879.639l2.448.355-1.77 1.727Zm-7.389 32.092h-2.333v2.334h2.333v-2.334Zm0 4.668h-2.333v2.332h2.333V49.56Zm2.333-2.334h-2.333v2.333H59.5v-2.333Zm-4.666 0H52.5v2.333h2.334v-2.333ZM49 57.726h-2.333v2.333H49v-2.333Zm0 4.667h-2.333v2.333H49v-2.333Zm2.334-2.333H49v2.333h2.334v-2.334Zm-4.667 0h-2.334v2.333h2.334v-2.334ZM35 53.06h-2.333v2.333H35v-2.334Zm0 4.666h-2.333v2.333H35v-2.333Zm2.333-2.334H35v2.334h2.333v-2.334Zm-4.666 0h-2.334v2.334h2.334v-2.334Zm-19.834-42H10.5v2.333h2.333v-2.333Zm0 4.667H10.5v2.333h2.333V18.06Zm2.333-2.334h-2.333v2.334h2.333v-2.334Zm-4.666 0H8.166v2.334H10.5v-2.334Z" fill="#2196F3"/><path d="M59.157 30.974c-.688-.848-1.698-1.394-2.844-1.541a4.551 4.551 0 0 0-3.207.77L50.11 32.3l-.001.002-4.543 3.1-3.25-1.184c5.796-2.376 9.847-7.674 9.847-13.825 0-8.363-7.475-15.167-16.663-15.167-9.187 0-16.662 6.804-16.662 15.167 0 3.031.992 5.85 2.681 8.222l-6.615-.053h-.012c-.02 0-.037.01-.056.01a1.35 1.35 0 0 0-.371.069c-.031.01-.063.016-.092.029-.015.006-.03.007-.046.014l-7.739 3.491c-.001 0-.003 0-.003.002l-4.532 1.991c-.05.02-.1.047-.15.077C.096 35.346-.52 37.504.47 39.268c.528.938 1.425 1.628 2.528 1.944.425.122.86.181 1.29.181a4.58 4.58 0 0 0 2.01-.462l3.322-1.614 5.42-2.558 3.247-.017L5.262 48.588l-.004.003-3.205 2.916C1.296 52.196.88 53.11.88 54.084c0 .972.416 1.888 1.173 2.578.778.707 1.8 1.062 2.823 1.062 1.024 0 2.045-.355 2.825-1.062l3.146-2.863 4.166-2.843 2.157 1.962-4.217 3.837-.004.002-3.204 2.917c-.757.688-1.174 1.602-1.174 2.576 0 .973.417 1.889 1.174 2.579.777.707 1.801 1.061 2.824 1.061 1.022 0 2.046-.354 2.825-1.061l3.205-2.917 5.128-4.667.003-.003 2.416-2.188-.009-.008c.016-.014.037-.019.053-.034l12.365-12.377 8.308 1.08c.06.008.12.012.18.012.155 0 .304-.034.448-.084.042-.014.08-.033.12-.051.045-.021.094-.033.137-.06l7.692-4.666c.028-.018.043-.046.07-.065.03-.022.069-.031.097-.056l3.043-2.605c1.584-1.356 1.802-3.577.507-5.166ZM5.1 38.872a1.851 1.851 0 0 1-1.336.113 1.682 1.682 0 0 1-1.022-.782c-.385-.687-.162-1.522.514-1.973L6.4 34.847l.757 2.022.318.85L5.1 38.872Zm8.371-3.998-3.706 1.75-.611-1.633-.44-1.174 4.852-2.189-.095 3.246Zm36.142-14.482c0 2.009-.525 3.904-1.434 5.599L38.17 21.836c-.105-1.254-.817-2.352-1.887-3.035l3.504-10.633c5.691 1.655 9.825 6.507 9.825 12.224Zm-28.218 0c0-7.076 6.33-12.834 14.109-12.834.605 0 1.197.047 1.783.115L33.86 18.07c-.046 0-.09-.013-.137-.013-2.471 0-4.482 1.832-4.482 4.084s2.01 4.083 4.482 4.083c1.662 0 3.098-.838 3.873-2.066l9.245 3.838c-2.572 3.165-6.689 5.228-11.337 5.228-7.78 0-14.109-5.757-14.109-12.833Zm14.257 1.75c0 .965-.866 1.75-1.929 1.75-1.063 0-1.929-.785-1.929-1.75s.866-1.75 1.93-1.75c1.063 0 1.928.785 1.928 1.75ZM5.9 55.007a1.556 1.556 0 0 1-2.045.002 1.246 1.246 0 0 1-.421-.925c0-.348.149-.676.42-.922l2.304-2.097 2.037 1.854L5.9 55.007Zm7.693 8.167a1.555 1.555 0 0 1-2.047.002 1.245 1.245 0 0 1-.421-.926c0-.347.15-.675.421-.921l2.305-2.098.963.876 1.075.978-2.296 2.09Zm8.333-7.588-.004.003-4.224 3.85-.964-.877-1.075-.977 4.22-3.84v-.001l.005-.002c.095-.088.155-.193.214-.297.017-.03.049-.056.063-.087.04-.09.046-.187.061-.281.008-.054.033-.104.033-.16 0-.077-.03-.153-.048-.23-.015-.07-.015-.141-.045-.209a1.163 1.163 0 0 0-.218-.301c-.024-.026-.033-.058-.06-.083h-.002s0-.003-.002-.005l-3.846-3.5c-.041-.037-.094-.052-.14-.084a1.245 1.245 0 0 0-.208-.126 1.273 1.273 0 0 0-.223-.07 1.345 1.345 0 0 0-.246-.044 1.365 1.365 0 0 0-.229.01c-.085.01-.166.02-.249.045-.08.023-.152.06-.226.098-.047.024-.1.033-.145.063l-4.245 2.896-2.156-1.963 5.742-5.22 10.438 9.382-2.22 2.01Zm16.322-15.349c-.037-.005-.072.008-.109.006a1.372 1.372 0 0 0-.275.015 1.232 1.232 0 0 0-.442.15c-.072.04-.137.081-.2.134-.03.024-.067.036-.095.064L25.881 51.862l-10.36-9.311 6.782-6.165c.5-.455.502-1.194.004-1.651a1.343 1.343 0 0 0-.913-.342l-5.31.028.066-3.516 7.43.058c3.028 2.83 7.25 4.596 11.923 4.596 1.047 0 2.068-.1 3.063-.268.095.07.19.14.31.185l5.768 2.1.365 1.659.426 1.937-7.187-.935Zm9.673.39-.75-3.408 3.462-2.363.907 1.1 1.36 1.649-4.98 3.022Zm8.984-6.193L54.9 36.151l-2.23-2.704 1.991-1.394c.371-.261.84-.368 1.3-.313.462.06.87.28 1.148.622.519.638.43 1.529-.204 2.072Z" fill="#212121"/><path d="m29.755 40.565-4.688-4.667a1.166 1.166 0 0 0-1.646 0l-4.687 4.667a1.172 1.172 0 0 0 0 1.654l4.686 4.667a1.166 1.166 0 0 0 1.647 0l4.688-4.667a1.167 1.167 0 0 0 0-1.654Zm-5.51 3.848-3.034-3.02 3.033-3.021 3.035 3.02-3.035 3.02Zm13.302-33.321-.564 2.266c.156.039 3.801.988 3.801 4.7h2.334c0-4.412-3.644-6.486-5.571-6.966Zm5.571 9.3h-2.334v2.333h2.334v-2.333Z" fill="#212121"/></svg>