<svg width="44" height="44" fill="none" xmlns="http://www.w3.org/2000/svg"><path fill="#E5E5E5" d="M0 0h44v44H0z"/><g clip-path="url(#a)"><path fill="#fff" d="M-247-2139h1600V792H-247z"/><path fill="#F5F4FA" d="M-247-540h1600v708H-247z"/><g filter="url(#b)"><path d="M-32-354h270V70a4 4 0 0 1-4 4H-28a4 4 0 0 1-4-4v-424Z" fill="#fff"/></g><path d="M44 22a21.931 21.931 0 0 1-6.444 15.556A21.931 21.931 0 0 1 22 44a21.931 21.931 0 0 1-15.556-6.444A21.931 21.931 0 0 1 0 22 21.931 21.931 0 0 1 6.444 6.444 21.931 21.931 0 0 1 22 0a21.931 21.931 0 0 1 15.556 6.444A21.931 21.931 0 0 1 44 22Z" fill="#2196F3"/><g clip-path="url(#c)" fill="#fff"><path d="M31.98 17.88c-.046-1.063-.218-1.793-.464-2.426a4.881 4.881 0 0 0-1.157-1.774 4.922 4.922 0 0 0-1.77-1.153c-.637-.246-1.363-.418-2.426-.464-1.07-.051-1.41-.063-4.126-.063-2.715 0-3.055.012-4.122.059-1.063.046-1.793.219-2.426.465a4.879 4.879 0 0 0-1.774 1.156 4.923 4.923 0 0 0-1.152 1.77c-.247.637-.418 1.363-.465 2.426-.051 1.07-.063 1.41-.063 4.126 0 2.715.012 3.055.059 4.122.047 1.063.219 1.793.465 2.426a4.932 4.932 0 0 0 1.156 1.774 4.92 4.92 0 0 0 1.77 1.152c.637.247 1.364.419 2.426.465 1.067.047 1.407.059 4.122.059 2.716 0 3.055-.012 4.122-.059 1.063-.046 1.793-.218 2.426-.464a5.116 5.116 0 0 0 2.927-2.927c.246-.637.418-1.364.465-2.426.047-1.067.058-1.407.058-4.122s-.004-3.055-.05-4.122Zm-1.8 8.166c-.044.977-.208 1.504-.344 1.855a3.318 3.318 0 0 1-1.9 1.9c-.35.136-.882.3-1.855.343-1.055.047-1.371.059-4.04.059-2.668 0-2.989-.012-4.04-.059-.977-.043-1.504-.207-1.856-.344a3.076 3.076 0 0 1-1.148-.746 3.109 3.109 0 0 1-.747-1.148c-.136-.352-.3-.883-.343-1.856-.047-1.055-.059-1.372-.059-4.04 0-2.669.012-2.99.059-4.04.043-.977.207-1.504.343-1.856a3.04 3.04 0 0 1 .75-1.149 3.104 3.104 0 0 1 1.15-.746c.35-.136.882-.3 1.855-.344 1.055-.046 1.372-.058 4.04-.058 2.672 0 2.989.011 4.04.058.977.043 1.504.207 1.856.344.433.16.828.414 1.148.746.332.325.586.715.747 1.15.136.35.3.882.343 1.855.047 1.055.059 1.371.059 4.04 0 2.668-.012 2.98-.059 4.036Z"/><path d="M22.037 16.864a5.139 5.139 0 1 0 5.138 5.138 5.139 5.139 0 0 0-5.138-5.138Zm0 8.47a3.333 3.333 0 1 1 .001-6.666 3.333 3.333 0 0 1 0 6.667Zm6.541-8.673a1.2 1.2 0 1 1-2.4 0 1.2 1.2 0 0 1 2.4 0Z"/></g><path d="M35.333 45c-.246 0-.477.067-.675.184A1.335 1.335 0 0 0 33.333 44c-.325 0-.624.118-.857.314a1.333 1.333 0 0 0-1.81-.468v-3.513a1.334 1.334 0 0 0-2.666 0v8.922c0 .167-.11.254-.158.283a.33.33 0 0 1-.324.015l-2.141-1.07a1.414 1.414 0 0 0-2.044 1.263V50c0 .092.039.18.106.244l3.848 3.59A4.32 4.32 0 0 0 30.242 55h2.09a4.338 4.338 0 0 0 4.334-4.333v-4.334c0-.735-.598-1.333-1.334-1.333ZM36 50.667a3.67 3.67 0 0 1-3.667 3.666h-2.09c-.931 0-1.82-.35-2.501-.986L24 49.855v-.11a.746.746 0 0 1 1.079-.666l2.14 1.07a.99.99 0 0 0 .973-.044.994.994 0 0 0 .475-.85v-8.922a.667.667 0 0 1 1.333 0v5a.333.333 0 1 0 .667 0V45A.668.668 0 0 1 32 45v.335a.334.334 0 0 0 .667-.002v-.005a.668.668 0 0 1 1.333.005v1a.333.333 0 1 0 .667 0 .667.667 0 0 1 1.333 0v4.334Z" fill="#000"/></g><defs><clipPath id="a"><path fill="#fff" transform="translate(-247 -2139)" d="M0 0h1600v2931H0z"/></clipPath><clipPath id="c"><path fill="#fff" transform="translate(12 12)" d="M0 0h20v20H0z"/></clipPath><filter id="b" x="-35" y="-356" width="276" height="434" filterUnits="userSpaceOnUse" color-interpolation-filters="sRGB"><feFlood flood-opacity="0" result="BackgroundImageFix"/><feColorMatrix in="SourceAlpha" values="0 0 0 0 0 0 0 0 0 0 0 0 0 0 0 0 0 0 127 0" result="hardAlpha"/><feOffset dy="2"/><feGaussianBlur stdDeviation=".5"/><feColorMatrix values="0 0 0 0 0 0 0 0 0 0 0 0 0 0 0 0 0 0 0.2 0"/><feBlend in2="BackgroundImageFix" result="effect1_dropShadow"/><feColorMatrix in="SourceAlpha" values="0 0 0 0 0 0 0 0 0 0 0 0 0 0 0 0 0 0 127 0" result="hardAlpha"/><feOffset dy="1"/><feGaussianBlur stdDeviation=".5"/><feColorMatrix values="0 0 0 0 0 0 0 0 0 0 0 0 0 0 0 0 0 0 0.14 0"/><feBlend in2="effect1_dropShadow" result="effect2_dropShadow"/><feColorMatrix in="SourceAlpha" values="0 0 0 0 0 0 0 0 0 0 0 0 0 0 0 0 0 0 127 0" result="hardAlpha"/><feOffset dy="1"/><feGaussianBlur stdDeviation="1.5"/><feColorMatrix values="0 0 0 0 0 0 0 0 0 0 0 0 0 0 0 0 0 0 0.12 0"/><feBlend in2="effect2_dropShadow" result="effect3_dropShadow"/><feBlend in="SourceGraphic" in2="effect3_dropShadow" result="shape"/></filter></defs></svg>