<svg width="270" height="251" fill="none" xmlns="http://www.w3.org/2000/svg"><path d="M.889 163v-9.953h3.486c1.208 0 2.124.232 2.748.697.624.46.937 1.137.937 2.03 0 .488-.126.919-.376 1.292-.251.37-.6.641-1.046.814.51.127.911.385 1.203.772.296.388.444.862.444 1.422 0 .957-.305 1.682-.916 2.174-.61.492-1.481.743-2.611.752H.888Zm2.05-4.334v2.687h1.757c.483 0 .86-.114 1.128-.342.274-.233.41-.552.41-.957 0-.912-.471-1.374-1.415-1.388H2.94Zm0-1.449h1.518c1.035-.018 1.552-.431 1.552-1.238 0-.451-.132-.774-.397-.97-.26-.201-.672-.301-1.237-.301H2.939v2.509ZM18.351 163H16.3v-4.266h-4V163h-2.05v-9.953h2.05v4.033h4v-4.033h2.05V163Zm8.185-9.953h2.058V163h-2.058v-6.61L22.551 163H20.5v-9.953h2.05v6.624l3.985-6.624Zm6.935 0 2.557 7.219 2.543-7.219h2.693V163h-2.058v-2.721l.205-4.696L36.725 163h-1.408l-2.68-7.41.205 4.689V163h-2.05v-9.953h2.679Zm15.746 7.902h-3.596L44.938 163h-2.18l3.704-9.953h1.9L52.089 163h-2.18l-.69-2.051Zm-3.042-1.661h2.488l-1.25-3.726-1.238 3.726ZM61.54 163h-2.051v-4.266h-4V163h-2.05v-9.953h2.05v4.033h4v-4.033h2.05V163Zm8.185-9.953h2.058V163h-2.058v-6.61L65.74 163h-2.051v-9.953h2.05v6.624l3.986-6.624Zm10.243 5.64H76.03v2.666h4.62V163h-6.67v-9.953h6.657v1.661H76.03v2.372h3.937v1.607Zm9.46.246h-1.182V163h-2.05v-9.953h2.05v3.985h.936l2.434-3.985h2.502l-3.07 4.71L94.439 163h-2.447l-2.564-4.067Zm19.359 6.514h-1.894V163h-6.001v2.44h-1.942l-.11-4.087h.753c.405-.338.717-.832.936-1.484.224-.656.374-1.467.451-2.433l.287-4.389h6.522v8.306h1.162l-.164 4.094Zm-6.843-4.094h3.794v-6.645h-2.522l-.171 2.618c-.137 1.755-.504 3.097-1.101 4.027Zm14.495-2.666h-3.937v2.666h4.621V163h-6.672v-9.953h6.658v1.661h-4.607v2.372h3.937v1.607Zm9.936-3.979h-3.049V163h-2.051v-8.292h-3.007v-1.661h8.107v1.661Zm6.395 6.241h-3.596l-.684 2.051h-2.18l3.705-9.953h1.9L135.64 163h-2.181l-.69-2.051Zm-3.042-1.661h2.488l-1.251-3.726-1.237 3.726Zm15.479-6.241V163h-2.057v-8.292h-2.653l-.164 3.514c-.068 1.185-.219 2.119-.451 2.802-.232.679-.572 1.178-1.018 1.497-.447.315-1.058.474-1.833.479h-.533v-1.647l.342-.035c.515-.068.882-.364 1.101-.888.223-.529.364-1.468.423-2.817l.171-4.566h6.672Zm6.812 9.953v-3.589h-1.668L148.552 163h-2.215l2.126-4.245c-1.025-.565-1.538-1.443-1.538-2.632 0-.975.319-1.729.957-2.263.638-.533 1.529-.804 2.673-.813h3.52V163h-2.057Zm-3.042-6.727c0 .556.134.96.403 1.21.274.251.681.376 1.224.376h1.415v-3.151h-1.415c-1.085 0-1.627.522-1.627 1.565Zm9.894-3.226 2.557 7.219 2.543-7.219h2.693V163h-2.057v-2.721l.205-4.696-2.687 7.417h-1.408l-2.68-7.41.206 4.689V163h-2.051v-9.953h2.679Z" fill="#212121"/><path d="M7.43 183.047h1.313V193H7.431v-7.67L2.529 193H1.21v-9.953h1.32v7.67l4.9-7.67Zm4.016 8.921.438-.54c.492-.638.772-1.595.84-2.871l.117-2.953h4.764v6.364h.95v3.206h-1.264V193H12.13v2.174h-1.265l.007-3.206h.574Zm1.497 0h3.398v-5.196h-2.277l-.075 1.764c-.077 1.472-.426 2.616-1.046 3.432Zm10.503 1.169c-1.002 0-1.818-.328-2.447-.985-.629-.66-.943-1.542-.943-2.645v-.233c0-.733.139-1.387.417-1.962a3.29 3.29 0 0 1 1.176-1.353 2.959 2.959 0 0 1 1.64-.492c.962 0 1.71.317 2.242.95.534.633.8 1.54.8 2.721v.526h-5.01c.018.729.23 1.319.635 1.771.41.446.93.669 1.559.669.446 0 .825-.091 1.135-.273.31-.182.58-.424.813-.725l.772.602c-.62.952-1.549 1.429-2.789 1.429Zm-.157-6.631c-.51 0-.939.187-1.285.56-.346.37-.56.889-.643 1.559h3.706v-.096c-.037-.642-.21-1.139-.52-1.49-.31-.355-.73-.533-1.258-.533Zm9.717-.902h1.265V193h-1.265v-5.394L29.595 193H28.33v-7.396h1.265v5.4l3.411-5.4Zm.342-2.694c0 .552-.19.996-.567 1.333-.374.333-.866.499-1.477.499-.61 0-1.105-.168-1.483-.506-.379-.337-.568-.779-.568-1.326h1.032c0 .319.087.57.26.752.173.178.426.267.759.267.319 0 .567-.089.745-.267.182-.178.273-.428.273-.752h1.026ZM42.764 193h-1.265v-3.158h-3.397V193H36.83v-7.396h1.272v3.206h3.397v-3.206h1.265V193Zm3.838-4.847h1.92c.84.009 1.503.228 1.99.657.488.428.732 1.009.732 1.743 0 .738-.251 1.33-.752 1.777-.502.447-1.176.67-2.024.67h-3.13v-7.396h1.264v2.549Zm7.28 4.847h-1.271v-7.396h1.271V193Zm-7.28-3.814v2.782h1.88c.474 0 .84-.121 1.1-.363.26-.246.39-.581.39-1.004 0-.411-.128-.746-.383-1.005-.25-.265-.604-.401-1.06-.41h-1.927Zm12.978 3.951c-1.003 0-1.819-.328-2.448-.985-.629-.66-.943-1.542-.943-2.645v-.233c0-.733.139-1.387.417-1.962a3.29 3.29 0 0 1 1.176-1.353 2.959 2.959 0 0 1 1.64-.492c.962 0 1.71.317 2.242.95.534.633.8 1.54.8 2.721v.526h-5.01c.018.729.23 1.319.635 1.771.41.446.93.669 1.559.669.446 0 .825-.091 1.135-.273.31-.182.58-.424.813-.725l.773.602c-.62.952-1.55 1.429-2.79 1.429Zm-.158-6.631c-.51 0-.938.187-1.285.56-.346.37-.56.889-.642 1.559H61.2v-.096c-.037-.642-.21-1.139-.52-1.49-.31-.355-.729-.533-1.258-.533Zm11.791 5.598c.452 0 .846-.136 1.183-.41.337-.273.524-.615.56-1.025h1.197a2.294 2.294 0 0 1-.438 1.21 2.875 2.875 0 0 1-1.08.916c-.446.228-.92.342-1.422.342-1.007 0-1.809-.335-2.406-1.005-.592-.675-.888-1.595-.888-2.762v-.212c0-.72.132-1.36.396-1.921a3.03 3.03 0 0 1 1.135-1.305c.497-.31 1.082-.465 1.757-.465.83 0 1.517.248 2.064.745.552.497.846 1.142.882 1.934h-1.196c-.037-.478-.22-.87-.547-1.175-.324-.31-.725-.465-1.203-.465-.643 0-1.142.232-1.497.697-.351.46-.527 1.128-.527 2.003v.239c0 .853.176 1.509.527 1.969.35.46.852.69 1.504.69Zm4.447-2.871c0-.724.141-1.376.424-1.955.287-.578.683-1.025 1.19-1.34.51-.314 1.09-.471 1.742-.471 1.007 0 1.821.348 2.44 1.046.625.697.937 1.624.937 2.782v.089c0 .72-.139 1.367-.417 1.941a3.113 3.113 0 0 1-1.182 1.333c-.51.319-1.099.479-1.764.479-1.003 0-1.816-.349-2.44-1.046-.62-.697-.93-1.62-.93-2.769v-.089Zm1.271.151c0 .82.19 1.479.568 1.975.383.497.893.745 1.531.745.643 0 1.153-.25 1.531-.751.378-.506.568-1.213.568-2.12 0-.811-.194-1.467-.581-1.968-.383-.506-.894-.759-1.532-.759-.624 0-1.128.248-1.51.745-.383.497-.575 1.208-.575 2.133Zm7.133-.151c0-.724.142-1.376.424-1.955.287-.578.684-1.025 1.19-1.34.51-.314 1.091-.471 1.743-.471 1.007 0 1.82.348 2.44 1.046.624.697.937 1.624.937 2.782v.089c0 .72-.14 1.367-.417 1.941a3.113 3.113 0 0 1-1.183 1.333c-.51.319-1.098.479-1.764.479-1.002 0-1.816-.349-2.44-1.046-.62-.697-.93-1.62-.93-2.769v-.089Zm1.272.151c0 .82.189 1.479.567 1.975.383.497.893.745 1.531.745.643 0 1.153-.25 1.532-.751.378-.506.567-1.213.567-2.12 0-.811-.194-1.467-.581-1.968-.383-.506-.893-.759-1.531-.759-.625 0-1.128.248-1.511.745s-.574 1.208-.574 2.133Zm10.715-3.357c.93 0 1.672.313 2.228.937.56.62.841 1.438.841 2.454v.116c0 .697-.134 1.322-.403 1.873a3.013 3.013 0 0 1-1.162 1.279c-.502.3-1.08.451-1.737.451-.993 0-1.793-.331-2.4-.991-.605-.666-.908-1.557-.908-2.673v-.616c0-1.554.287-2.789.861-3.705.579-.916 1.431-1.474 2.557-1.674.638-.114 1.068-.253 1.292-.417a.796.796 0 0 0 .335-.677h1.039c0 .569-.13 1.014-.39 1.333-.255.319-.665.544-1.23.677l-.944.211c-.752.178-1.317.479-1.695.903-.374.419-.618.98-.732 1.681.67-.774 1.486-1.162 2.448-1.162Zm-.246 1.039c-.62 0-1.112.21-1.477.629-.365.415-.547.992-.547 1.73v.109c0 .793.182 1.422.547 1.887.37.46.866.69 1.49.69.63 0 1.126-.232 1.49-.697.365-.465.547-1.144.547-2.037 0-.697-.184-1.256-.553-1.675-.365-.424-.864-.636-1.497-.636Zm11.282 2.318c0 1.125-.258 2.032-.773 2.72-.515.689-1.212 1.033-2.091 1.033-.898 0-1.605-.285-2.12-.855v3.562h-1.264v-10.24h1.155l.062.82c.515-.638 1.23-.957 2.146-.957.889 0 1.591.335 2.106 1.005.519.67.779 1.602.779 2.796v.116Zm-1.265-.144c0-.834-.178-1.492-.533-1.975-.355-.483-.843-.725-1.463-.725-.765 0-1.34.34-1.723 1.019v3.534c.379.674.958 1.011 1.737 1.011.606 0 1.087-.239 1.442-.717.36-.483.54-1.199.54-2.147Zm7.865 3.76c-.073-.146-.133-.406-.178-.779-.588.61-1.29.916-2.106.916-.729 0-1.328-.205-1.797-.616a2.014 2.014 0 0 1-.698-1.572c0-.77.292-1.367.875-1.791.588-.428 1.413-.642 2.475-.642h1.23v-.581c0-.442-.132-.793-.396-1.053-.264-.264-.654-.397-1.169-.397-.451 0-.83.114-1.135.342-.305.228-.458.504-.458.827h-1.271c0-.369.13-.724.389-1.066.265-.346.62-.62 1.067-.82a3.6 3.6 0 0 1 1.483-.301c.852 0 1.52.214 2.003.642.483.424.734 1.01.752 1.757v3.405c0 .679.087 1.219.26 1.62V193h-1.326Zm-2.099-.964c.396 0 .772-.102 1.128-.307.355-.206.613-.472.772-.8v-1.518h-.991c-1.549 0-2.324.454-2.324 1.36 0 .397.132.707.396.93.265.223.604.335 1.019.335Zm11.467-2.249h-.889V193h-1.265v-3.213h-.888L117.942 193h-1.6l2.645-3.828-2.392-3.568h1.531l1.907 3.062h.868v-3.062h1.265v3.062h.861l1.921-3.062h1.532l-2.4 3.575 2.646 3.821h-1.6l-2.071-3.213Zm8.172 3.35c-1.003 0-1.819-.328-2.448-.985-.628-.66-.943-1.542-.943-2.645v-.233c0-.733.139-1.387.417-1.962a3.295 3.295 0 0 1 1.176-1.353 2.96 2.96 0 0 1 1.641-.492c.961 0 1.709.317 2.242.95.533.633.8 1.54.8 2.721v.526h-5.011c.018.729.23 1.319.636 1.771.41.446.929.669 1.558.669.447 0 .825-.091 1.135-.273.31-.182.581-.424.813-.725l.773.602c-.62.952-1.55 1.429-2.789 1.429Zm-.157-6.631c-.511 0-.939.187-1.286.56-.346.37-.56.889-.642 1.559h3.705v-.096c-.037-.642-.21-1.139-.52-1.49-.31-.355-.729-.533-1.257-.533ZM142.044 193h-1.264v-3.158h-3.398V193h-1.271v-7.396h1.271v3.206h3.398v-3.206h1.264V193Zm7.242-7.396h1.265V193h-1.265v-5.394L145.875 193h-1.264v-7.396h1.264v5.4l3.411-5.4Zm9.369 0V193h-1.272v-2.878h-1.907L153.733 193h-1.367l1.859-3.069c-.474-.174-.839-.44-1.094-.8a2.197 2.197 0 0 1-.376-1.272c0-.674.253-1.216.759-1.627.506-.414 1.183-.624 2.03-.628h3.111Zm-4.628 2.269c0 .36.123.652.369.875.246.219.572.33.977.335h2.01v-2.454h-1.818c-.47 0-.843.116-1.121.349a1.1 1.1 0 0 0-.417.895Zm7.037 7.109-.718-.492c.429-.597.652-1.212.67-1.845v-1.142h1.237v.991c0 .46-.113.921-.341 1.381-.224.46-.506.829-.848 1.107ZM172.732 193c-.073-.146-.132-.406-.178-.779-.588.61-1.289.916-2.105.916-.729 0-1.329-.205-1.798-.616-.465-.414-.697-.938-.697-1.572 0-.77.291-1.367.875-1.791.588-.428 1.413-.642 2.474-.642h1.231v-.581c0-.442-.132-.793-.397-1.053-.264-.264-.654-.397-1.169-.397-.451 0-.829.114-1.134.342-.306.228-.458.504-.458.827h-1.272c0-.369.13-.724.39-1.066a2.7 2.7 0 0 1 1.066-.82 3.605 3.605 0 0 1 1.484-.301c.852 0 1.519.214 2.003.642.483.424.733 1.01.752 1.757v3.405c0 .679.086 1.219.259 1.62V193h-1.326Zm-2.099-.964a2.22 2.22 0 0 0 1.128-.307c.356-.206.613-.472.773-.8v-1.518h-.991c-1.55 0-2.325.454-2.325 1.36 0 .397.133.707.397.93.264.223.604.335 1.018.335Zm14.957-5.407h-2.482V193h-1.264v-6.371h-2.434v-1.025h6.18v1.025Zm6.107 6.371c-.073-.146-.132-.406-.178-.779-.587.61-1.289.916-2.105.916-.729 0-1.328-.205-1.798-.616-.465-.414-.697-.938-.697-1.572 0-.77.292-1.367.875-1.791.588-.428 1.413-.642 2.474-.642h1.231v-.581c0-.442-.132-.793-.397-1.053-.264-.264-.654-.397-1.168-.397-.452 0-.83.114-1.135.342-.306.228-.458.504-.458.827h-1.272c0-.369.13-.724.39-1.066a2.7 2.7 0 0 1 1.066-.82 3.605 3.605 0 0 1 1.484-.301c.852 0 1.52.214 2.003.642.483.424.733 1.01.752 1.757v3.405c0 .679.086 1.219.259 1.62V193h-1.326Zm-2.098-.964a2.22 2.22 0 0 0 1.127-.307c.356-.206.613-.472.773-.8v-1.518h-.991c-1.55 0-2.324.454-2.324 1.36 0 .397.132.707.396.93.264.223.604.335 1.019.335Zm7.871-2.187h-.923V193h-1.272v-7.396h1.272v3.13h.827l2.488-3.13h1.532l-2.926 3.554L201.64 193h-1.607l-2.563-3.151Zm11.576-.062h-.889V193h-1.264v-3.213h-.889L203.933 193h-1.6l2.646-3.828-2.393-3.568h1.531l1.907 3.062h.869v-3.062h1.264v3.062h.862l1.921-3.062h1.531l-2.4 3.575 2.646 3.821h-1.6l-2.071-3.213Zm8.172 3.35c-1.003 0-1.818-.328-2.447-.985-.629-.66-.944-1.542-.944-2.645v-.233c0-.733.139-1.387.417-1.962a3.295 3.295 0 0 1 1.176-1.353 2.96 2.96 0 0 1 1.641-.492c.961 0 1.709.317 2.242.95.533.633.8 1.54.8 2.721v.526h-5.011c.018.729.23 1.319.636 1.771.41.446.929.669 1.558.669.447 0 .825-.091 1.135-.273.31-.182.581-.424.814-.725l.772.602c-.62.952-1.549 1.429-2.789 1.429Zm-.157-6.631c-.511 0-.939.187-1.285.56-.347.37-.561.889-.643 1.559h3.705v-.096c-.036-.642-.21-1.139-.519-1.49-.31-.355-.73-.533-1.258-.533ZM7 217H5.735v-3.158H2.338V217H1.066v-7.396h1.272v3.206h3.397v-3.206H7V217Zm7.024 0c-.073-.146-.133-.406-.178-.779-.588.61-1.29.916-2.106.916-.729 0-1.328-.205-1.798-.616a2.014 2.014 0 0 1-.697-1.572c0-.77.292-1.367.875-1.791.588-.428 1.413-.642 2.475-.642h1.23v-.581c0-.442-.132-.793-.396-1.053-.264-.264-.654-.397-1.17-.397-.45 0-.829.114-1.134.342-.305.228-.458.504-.458.827H9.396c0-.369.13-.724.39-1.066a2.7 2.7 0 0 1 1.066-.82 3.604 3.604 0 0 1 1.483-.301c.852 0 1.52.214 2.003.642.483.424.734 1.01.752 1.757v3.405c0 .679.087 1.219.26 1.62V217h-1.326Zm-2.1-.964c.397 0 .773-.102 1.129-.307.355-.206.613-.472.772-.8v-1.518h-.99c-1.55 0-2.325.454-2.325 1.36 0 .397.132.707.396.93.265.223.604.335 1.019.335Zm11.153.964h-1.271v-2.68a6.7 6.7 0 0 1-1.71.219c-.924 0-1.63-.237-2.118-.711-.483-.474-.73-1.148-.739-2.023v-2.208h1.265v2.249c.023 1.103.554 1.654 1.593 1.654a6.7 6.7 0 0 0 1.709-.219v-3.677h1.271V217Zm7.017 0c-.073-.146-.132-.406-.178-.779-.588.61-1.29.916-2.105.916-.73 0-1.329-.205-1.798-.616a2.014 2.014 0 0 1-.697-1.572c0-.77.291-1.367.875-1.791.588-.428 1.412-.642 2.474-.642h1.23v-.581c0-.442-.131-.793-.396-1.053-.264-.264-.654-.397-1.169-.397-.45 0-.83.114-1.134.342-.306.228-.459.504-.459.827h-1.27c0-.369.129-.724.389-1.066.264-.346.62-.62 1.066-.82a3.604 3.604 0 0 1 1.483-.301c.853 0 1.52.214 2.003.642.483.424.734 1.01.752 1.757v3.405c0 .679.087 1.219.26 1.62V217h-1.326Zm-2.099-.964c.397 0 .773-.102 1.128-.307.356-.206.613-.472.773-.8v-1.518h-.992c-1.549 0-2.324.454-2.324 1.36 0 .397.133.707.397.93.264.223.604.335 1.018.335Zm11.631-6.432V217h-1.271v-6.351h-2.516l-.15 2.769c-.082 1.271-.296 2.181-.643 2.728-.342.546-.886.831-1.634.854h-.505v-1.114l.362-.028c.41-.045.704-.282.882-.711.177-.428.291-1.221.341-2.378l.137-3.165h4.997Zm2.116 3.629c0-.724.14-1.376.423-1.955.288-.578.684-1.025 1.19-1.34.51-.314 1.091-.471 1.743-.471 1.007 0 1.82.348 2.44 1.046.625.697.937 1.624.937 2.782v.089c0 .72-.139 1.367-.417 1.941a3.112 3.112 0 0 1-1.183 1.333c-.51.319-1.098.479-1.763.479-1.003 0-1.816-.349-2.44-1.046-.62-.697-.93-1.62-.93-2.769v-.089Zm1.271.151c0 .82.19 1.479.568 1.975.382.497.893.745 1.53.745.643 0 1.154-.25 1.532-.751.378-.506.567-1.213.567-2.12 0-.811-.193-1.467-.58-1.968-.384-.506-.894-.759-1.532-.759-.624 0-1.128.248-1.51.745-.383.497-.575 1.208-.575 2.133ZM60.423 217H59.16v-6.351h-3.404V217h-1.272v-7.396h5.94V217Zm2.116-3.767c0-.724.141-1.376.423-1.955.288-.578.684-1.025 1.19-1.34.51-.314 1.091-.471 1.743-.471 1.007 0 1.82.348 2.44 1.046.625.697.937 1.624.937 2.782v.089c0 .72-.139 1.367-.417 1.941a3.112 3.112 0 0 1-1.183 1.333c-.51.319-1.098.479-1.763.479-1.003 0-1.816-.349-2.44-1.046-.62-.697-.93-1.62-.93-2.769v-.089Zm1.271.151c0 .82.19 1.479.568 1.975.382.497.893.745 1.53.745.643 0 1.154-.25 1.532-.751.378-.506.567-1.213.567-2.12 0-.811-.193-1.467-.58-1.968-.383-.506-.894-.759-1.532-.759-.624 0-1.128.248-1.51.745-.383.497-.575 1.208-.575 2.133ZM71.394 217v-7.396h2.885c.984 0 1.739.173 2.263.519.528.342.793.845.793 1.511 0 .342-.103.651-.308.929-.205.274-.508.484-.91.629.447.105.805.31 1.074.616.274.305.41.67.41 1.093 0 .679-.25 1.199-.752 1.559-.496.36-1.2.54-2.112.54h-3.343Zm1.265-3.247v2.228h2.092c.528 0 .923-.098 1.182-.293.265-.196.397-.472.397-.828 0-.738-.543-1.107-1.627-1.107h-2.044Zm0-1.012h1.634c1.185 0 1.777-.346 1.777-1.039s-.56-1.05-1.682-1.073h-1.73v2.112Zm10.004 3.363c.451 0 .845-.136 1.183-.41.337-.273.524-.615.56-1.025h1.196a2.293 2.293 0 0 1-.437 1.21 2.874 2.874 0 0 1-1.08.916c-.447.228-.92.342-1.422.342-1.007 0-1.81-.335-2.406-1.005-.593-.675-.889-1.595-.889-2.762v-.212c0-.72.132-1.36.397-1.921.264-.56.642-.995 1.134-1.305.497-.31 1.083-.465 1.757-.465.83 0 1.518.248 2.064.745.552.497.846 1.142.882 1.934h-1.196c-.036-.478-.219-.87-.547-1.175-.323-.31-.724-.465-1.203-.465-.643 0-1.142.232-1.497.697-.35.46-.526 1.128-.526 2.003v.239c0 .853.175 1.509.526 1.969.35.46.852.69 1.504.69Zm7.85 1.033c-1.002 0-1.818-.328-2.447-.985-.629-.66-.943-1.542-.943-2.645v-.233c0-.733.139-1.387.417-1.962a3.29 3.29 0 0 1 1.176-1.353 2.959 2.959 0 0 1 1.64-.492c.962 0 1.71.317 2.243.95.533.633.8 1.54.8 2.721v.526h-5.011c.018.729.23 1.319.635 1.771.41.446.93.669 1.559.669.447 0 .825-.091 1.135-.273.31-.182.58-.424.813-.725l.773.602c-.62.952-1.55 1.429-2.79 1.429Zm-.157-6.631c-.51 0-.938.187-1.285.56-.346.37-.56.889-.642 1.559h3.705v-.096c-.037-.642-.21-1.139-.52-1.49-.31-.355-.729-.533-1.258-.533Zm4.87 5.462.438-.54c.492-.638.772-1.595.84-2.871l.117-2.953h4.765v6.364h.95v3.206h-1.265V217h-5.16v2.174h-1.266l.007-3.206h.575Zm1.498 0h3.397v-5.196h-2.276l-.076 1.764c-.077 1.472-.426 2.616-1.045 3.432ZM110.2 217h-1.264v-3.158h-3.398V217h-1.271v-7.396h1.271v3.206h3.398v-3.206h1.264V217Zm5.527.137c-1.003 0-1.819-.328-2.448-.985-.628-.66-.943-1.542-.943-2.645v-.233c0-.733.139-1.387.417-1.962a3.295 3.295 0 0 1 1.176-1.353 2.96 2.96 0 0 1 1.64-.492c.962 0 1.709.317 2.243.95.533.633.799 1.54.799 2.721v.526h-5.01c.018.729.23 1.319.635 1.771.411.446.93.669 1.559.669.447 0 .825-.091 1.135-.273.31-.182.581-.424.813-.725l.773.602c-.62.952-1.55 1.429-2.789 1.429Zm-.158-6.631c-.51 0-.938.187-1.285.56-.346.37-.56.889-.642 1.559h3.705v-.096c-.037-.642-.21-1.139-.52-1.49-.31-.355-.729-.533-1.258-.533Zm5.048 6.494v-7.396h2.885c.985 0 1.739.173 2.263.519.528.342.793.845.793 1.511 0 .342-.103.651-.308.929-.205.274-.508.484-.909.629.447.105.804.31 1.073.616.274.305.41.67.41 1.093 0 .679-.25 1.199-.752 1.559-.496.36-1.2.54-2.112.54h-3.343Zm1.265-3.247v2.228h2.092c.528 0 .923-.098 1.182-.293.265-.196.397-.472.397-.828 0-.738-.542-1.107-1.627-1.107h-2.044Zm0-1.012h1.634c1.185 0 1.777-.346 1.777-1.039s-.56-1.05-1.681-1.073h-1.73v2.112Zm13.08 4.259h-1.264v-3.158H130.3V217h-1.271v-7.396h1.271v3.206h3.398v-3.206h1.264V217Zm2.122-3.767c0-.724.142-1.376.424-1.955a3.226 3.226 0 0 1 1.19-1.34c.51-.314 1.091-.471 1.743-.471 1.007 0 1.82.348 2.44 1.046.625.697.937 1.624.937 2.782v.089c0 .72-.139 1.367-.417 1.941a3.117 3.117 0 0 1-1.183 1.333c-.51.319-1.098.479-1.764.479-1.002 0-1.816-.349-2.44-1.046-.62-.697-.93-1.62-.93-2.769v-.089Zm1.272.151c0 .82.189 1.479.567 1.975.383.497.893.745 1.531.745.643 0 1.153-.25 1.532-.751.378-.506.567-1.213.567-2.12 0-.811-.194-1.467-.581-1.968-.383-.506-.893-.759-1.531-.759-.625 0-1.128.248-1.511.745s-.574 1.208-.574 2.133Zm12.253-3.78h1.264V217h-1.264v-5.394L147.198 217h-1.265v-7.396h1.265v5.4l3.411-5.4Zm.342-2.694c0 .552-.19.996-.568 1.333-.373.333-.866.499-1.476.499-.611 0-1.105-.168-1.484-.506-.378-.337-.567-.779-.567-1.326h1.032c0 .319.087.57.26.752.173.178.426.267.759.267.319 0 .567-.089.745-.267.182-.178.273-.428.273-.752h1.026Zm13.513 6.474c0 1.125-.257 2.032-.772 2.72-.515.689-1.212 1.033-2.092 1.033-.898 0-1.604-.285-2.119-.855v3.562h-1.265v-10.24h1.156l.061.82c.515-.638 1.231-.957 2.147-.957.888 0 1.59.335 2.105 1.005.52.67.779 1.602.779 2.796v.116Zm-1.264-.144c0-.834-.178-1.492-.533-1.975-.356-.483-.844-.725-1.463-.725-.766 0-1.34.34-1.723 1.019v3.534c.378.674.957 1.011 1.736 1.011.606 0 1.087-.239 1.443-.717.36-.483.54-1.199.54-2.147Zm7.864 3.76c-.073-.146-.132-.406-.178-.779-.587.61-1.289.916-2.105.916-.729 0-1.329-.205-1.798-.616-.465-.414-.697-.938-.697-1.572 0-.77.291-1.367.875-1.791.588-.428 1.413-.642 2.474-.642h1.231v-.581c0-.442-.132-.793-.397-1.053-.264-.264-.654-.397-1.169-.397-.451 0-.829.114-1.134.342-.306.228-.458.504-.458.827h-1.272c0-.369.13-.724.39-1.066a2.7 2.7 0 0 1 1.066-.82 3.605 3.605 0 0 1 1.484-.301c.852 0 1.52.214 2.003.642.483.424.733 1.01.752 1.757v3.405c0 .679.086 1.219.259 1.62V217h-1.326Zm-2.098-.964a2.22 2.22 0 0 0 1.127-.307c.356-.206.613-.472.773-.8v-1.518h-.991c-1.55 0-2.325.454-2.325 1.36 0 .397.133.707.397.93.264.223.604.335 1.019.335Zm8.814-6.009c.93 0 1.673.313 2.229.937.56.62.84 1.438.84 2.454v.116c0 .697-.134 1.322-.403 1.873a3.013 3.013 0 0 1-1.162 1.279c-.501.3-1.08.451-1.736.451-.994 0-1.794-.331-2.4-.991-.606-.666-.909-1.557-.909-2.673v-.616c0-1.554.287-2.789.861-3.705.579-.916 1.431-1.474 2.557-1.674.638-.114 1.069-.253 1.292-.417a.796.796 0 0 0 .335-.677h1.039c0 .569-.13 1.014-.39 1.333-.255.319-.665.544-1.23.677l-.943.211c-.752.178-1.318.479-1.696.903-.373.419-.617.98-.731 1.681.67-.774 1.485-1.162 2.447-1.162Zm-.246 1.039c-.62 0-1.112.21-1.477.629-.364.415-.546.992-.546 1.73v.109c0 .793.182 1.422.546 1.887.37.46.866.69 1.491.69.629 0 1.125-.232 1.49-.697.364-.465.547-1.144.547-2.037 0-.697-.185-1.256-.554-1.675-.365-.424-.864-.636-1.497-.636Zm4.822 2.167c0-.724.142-1.376.424-1.955a3.226 3.226 0 0 1 1.19-1.34c.51-.314 1.091-.471 1.743-.471 1.007 0 1.82.348 2.44 1.046.625.697.937 1.624.937 2.782v.089c0 .72-.139 1.367-.417 1.941a3.117 3.117 0 0 1-1.183 1.333c-.51.319-1.098.479-1.764.479-1.002 0-1.816-.349-2.44-1.046-.62-.697-.93-1.62-.93-2.769v-.089Zm1.272.151c0 .82.189 1.479.567 1.975.383.497.893.745 1.531.745.643 0 1.153-.25 1.532-.751.378-.506.567-1.213.567-2.12 0-.811-.194-1.467-.581-1.968-.383-.506-.893-.759-1.531-.759-.625 0-1.128.248-1.511.745s-.574 1.208-.574 2.133Zm12.813-2.755h-2.481V217h-1.265v-6.371h-2.433v-1.025h6.179v1.025Zm3.032 1.524h1.921c.838.009 1.501.228 1.989.657.487.428.731 1.009.731 1.743 0 .738-.25 1.33-.752 1.777-.501.447-1.175.67-2.023.67h-3.131v-7.396h1.265v2.549Zm7.28 4.847h-1.272v-7.396h1.272V217Zm-7.28-3.814v2.782h1.88c.473 0 .84-.121 1.1-.363.26-.246.39-.581.39-1.004 0-.411-.128-.746-.383-1.005-.251-.265-.604-.401-1.06-.41h-1.927Zm19.85 3.814h-1.264v-6.351h-3.405V217h-1.271v-7.396h5.94V217Zm2.116-3.767c0-.724.141-1.376.424-1.955.287-.578.683-1.025 1.189-1.34.51-.314 1.091-.471 1.743-.471 1.007 0 1.821.348 2.441 1.046.624.697.936 1.624.936 2.782v.089c0 .72-.139 1.367-.417 1.941a3.11 3.11 0 0 1-1.183 1.333c-.51.319-1.098.479-1.763.479-1.003 0-1.816-.349-2.441-1.046-.619-.697-.929-1.62-.929-2.769v-.089Zm1.271.151c0 .82.189 1.479.568 1.975.382.497.893.745 1.531.745.642 0 1.153-.25 1.531-.751.378-.506.567-1.213.567-2.12 0-.811-.193-1.467-.581-1.968-.382-.506-.893-.759-1.531-.759-.624 0-1.128.248-1.511.745-.382.497-.574 1.208-.574 2.133ZM.684 237.438c0-1.235.239-2.205.717-2.912.479-.706 1.135-1.059 1.97-1.059.386 0 .726.066 1.018.198V230.5h1.264v3.206c.32-.159.693-.239 1.121-.239.839 0 1.497.353 1.976 1.059.479.707.718 1.725.718 3.056 0 1.089-.24 1.955-.718 2.598-.474.642-1.128.964-1.962.964-.442 0-.82-.073-1.135-.219v2.919H4.39v-2.899c-.301.132-.645.199-1.033.199-.829 0-1.483-.322-1.961-.964-.474-.643-.711-1.522-.711-2.639v-.103Zm7.52 0c0-.929-.16-1.649-.48-2.16-.318-.515-.758-.772-1.319-.772-.287 0-.537.045-.752.137v5.352c.205.078.46.116.766.116.565 0 1.003-.218 1.312-.656.315-.437.472-1.11.472-2.017Zm-6.256.144c0 .829.148 1.458.445 1.887.296.428.722.642 1.278.642.264 0 .503-.041.718-.123v-5.366a1.89 1.89 0 0 0-.704-.116c-.556 0-.985.248-1.286.745-.3.497-.45 1.274-.45 2.331Zm9.252-.349c0-.724.142-1.376.424-1.955.287-.578.684-1.025 1.19-1.34.51-.314 1.091-.471 1.743-.471 1.007 0 1.82.348 2.44 1.046.625.697.937 1.624.937 2.782v.089c0 .72-.14 1.367-.417 1.941a3.114 3.114 0 0 1-1.183 1.333c-.51.319-1.098.479-1.764.479-1.002 0-1.816-.349-2.44-1.046-.62-.697-.93-1.62-.93-2.769v-.089Zm1.272.151c0 .82.189 1.479.567 1.975.383.497.893.745 1.531.745.643 0 1.153-.25 1.532-.751.378-.506.567-1.213.567-2.12 0-.811-.194-1.467-.581-1.968-.383-.506-.893-.759-1.531-.759-.625 0-1.128.248-1.511.745s-.574 1.208-.574 2.133Zm13.716 0c0 1.125-.258 2.032-.773 2.72-.515.689-1.212 1.033-2.092 1.033-.897 0-1.604-.285-2.119-.855v3.562H19.94v-10.24h1.155l.061.82c.515-.638 1.23-.957 2.147-.957.889 0 1.59.335 2.105 1.005.52.67.78 1.602.78 2.796v.116Zm-1.265-.144c0-.834-.178-1.492-.533-1.975-.356-.483-.843-.725-1.463-.725-.766 0-1.34.34-1.723 1.019v3.534c.378.674.957 1.011 1.737 1.011.606 0 1.087-.239 1.442-.717.36-.483.54-1.199.54-2.147Zm7.557 2.085 2.515-5.721h1.58V241H35.31v-5.38L32.917 241h-.875l-2.44-5.496V241h-1.265v-7.396h1.64l2.503 5.721Zm11.337-5.721h1.264V241h-1.264v-5.394L40.406 241H39.14v-7.396h1.265v5.4l3.41-5.4Zm9.963 3.78c0 1.125-.258 2.032-.773 2.72-.515.689-1.212 1.033-2.092 1.033-.897 0-1.604-.285-2.119-.855v3.562h-1.264v-10.24h1.155l.061.82c.515-.638 1.23-.957 2.147-.957.889 0 1.59.335 2.105 1.005.52.67.78 1.602.78 2.796v.116Zm-1.265-.144c0-.834-.178-1.492-.533-1.975-.356-.483-.843-.725-1.463-.725-.766 0-1.34.34-1.723 1.019v3.534c.379.674.957 1.011 1.737 1.011.606 0 1.087-.239 1.442-.717.36-.483.54-1.199.54-2.147Zm2.963-.007c0-.724.141-1.376.424-1.955.287-.578.683-1.025 1.19-1.34.51-.314 1.09-.471 1.742-.471 1.008 0 1.821.348 2.44 1.046.625.697.937 1.624.937 2.782v.089c0 .72-.139 1.367-.417 1.941a3.112 3.112 0 0 1-1.182 1.333c-.51.319-1.099.479-1.764.479-1.002 0-1.816-.349-2.44-1.046-.62-.697-.93-1.62-.93-2.769v-.089Zm1.271.151c0 .82.19 1.479.568 1.975.383.497.893.745 1.531.745.643 0 1.153-.25 1.531-.751.379-.506.568-1.213.568-2.12 0-.811-.194-1.467-.581-1.968-.383-.506-.894-.759-1.532-.759-.624 0-1.128.248-1.51.745-.383.497-.575 1.208-.575 2.133ZM64.334 241v-7.396h2.884c.985 0 1.739.173 2.263.519.529.342.793.845.793 1.511 0 .342-.103.651-.308.929-.205.274-.508.484-.909.629.447.105.805.31 1.073.616.274.305.41.67.41 1.093 0 .679-.25 1.199-.751 1.559-.497.36-1.201.54-2.113.54h-3.342Zm1.264-3.247v2.228h2.092c.529 0 .923-.098 1.183-.293.264-.196.396-.472.396-.828 0-.738-.542-1.107-1.627-1.107h-2.044Zm0-1.012h1.634c1.185 0 1.777-.346 1.777-1.039s-.56-1.05-1.681-1.073h-1.73v2.112ZM77.202 241c-.073-.146-.132-.406-.178-.779-.588.61-1.29.916-2.105.916-.73 0-1.329-.205-1.798-.616a2.014 2.014 0 0 1-.697-1.572c0-.77.291-1.367.874-1.791.588-.428 1.413-.642 2.475-.642h1.23v-.581c0-.442-.132-.793-.396-1.053-.264-.264-.654-.397-1.169-.397-.451 0-.83.114-1.135.342-.305.228-.458.504-.458.827h-1.271c0-.369.13-.724.39-1.066.264-.346.62-.62 1.066-.82a3.604 3.604 0 0 1 1.483-.301c.852 0 1.52.214 2.003.642.483.424.734 1.01.752 1.757v3.405c0 .679.087 1.219.26 1.62V241h-1.326Zm-2.099-.964c.397 0 .773-.102 1.128-.307.356-.206.613-.472.773-.8v-1.518h-.992c-1.55 0-2.324.454-2.324 1.36 0 .397.132.707.397.93.264.223.604.335 1.018.335Zm11.61.964H85.45v-3.158h-3.397V241H80.78v-7.396h1.272v3.206h3.397v-3.206h1.265V241Zm7.243-7.396h1.264V241h-1.264v-5.394L90.545 241H89.28v-7.396h1.265v5.4l3.41-5.4Zm5.096 3.137h1.777c.096-.984.444-1.775 1.046-2.372.606-.601 1.369-.902 2.29-.902.966 0 1.757.326 2.372.977.615.652.948 1.5.998 2.543l.007.397c0 .72-.141 1.369-.424 1.948a3.164 3.164 0 0 1-1.189 1.34c-.511.31-1.094.465-1.75.465-.953 0-1.732-.31-2.338-.93-.606-.624-.946-1.433-1.019-2.427h-1.77V241h-1.265v-7.396h1.265v3.137Zm3.021.643c0 .82.189 1.479.568 1.975.382.497.895.745 1.538.745.642 0 1.15-.252 1.524-.758.378-.506.567-1.21.567-2.113 0-.806-.191-1.462-.574-1.968-.383-.506-.893-.759-1.531-.759-.629 0-1.135.248-1.518.745-.382.497-.574 1.208-.574 2.133Zm17.39 3.616h-1.265v-6.351h-3.404V241h-1.272v-7.396h5.941V241Zm2.115-3.767c0-.724.142-1.376.424-1.955a3.226 3.226 0 0 1 1.19-1.34c.51-.314 1.091-.471 1.743-.471 1.007 0 1.82.348 2.44 1.046.624.697.937 1.624.937 2.782v.089c0 .72-.139 1.367-.417 1.941a3.117 3.117 0 0 1-1.183 1.333c-.51.319-1.098.479-1.764.479-1.002 0-1.816-.349-2.44-1.046-.62-.697-.93-1.62-.93-2.769v-.089Zm1.272.151c0 .82.189 1.479.567 1.975.383.497.893.745 1.531.745.643 0 1.153-.25 1.532-.751.378-.506.567-1.213.567-2.12 0-.811-.194-1.467-.581-1.968-.383-.506-.893-.759-1.531-.759-.625 0-1.128.248-1.511.745s-.574 1.208-.574 2.133Zm11.535-1.757a.972.972 0 0 0-.397-.82c-.264-.205-.626-.308-1.086-.308-.447 0-.821.116-1.122.349-.296.232-.444.506-.444.82h-1.258c0-.643.269-1.169.807-1.579.538-.41 1.21-.615 2.017-.615.865 0 1.54.186 2.023.56.483.369.725.898.725 1.586 0 .333-.101.638-.301.916-.201.278-.486.499-.855.663.862.292 1.292.866 1.292 1.723 0 .679-.262 1.217-.786 1.613-.524.397-1.223.595-2.098.595-.853 0-1.557-.207-2.113-.622-.551-.419-.827-.985-.827-1.696h1.258c0 .361.159.67.478.93.324.255.725.383 1.204.383.483 0 .872-.112 1.169-.335a1.04 1.04 0 0 0 .444-.868c0-.415-.125-.711-.376-.889-.246-.182-.631-.273-1.155-.273h-1.265v-1.067h1.374c.861-.022 1.292-.378 1.292-1.066Zm8.247-2.023h1.265V241h-1.265v-5.394L139.221 241h-1.265v-7.396h1.265v5.4l3.411-5.4Zm3.824 0h1.272v6.364h3.404v-6.364h1.265v6.364h.882l-.123 3.226h-1.135V241h-5.565v-7.396Zm13.395 0h1.265V241h-1.265v-5.394L156.44 241h-1.265v-7.396h1.265v5.4l3.411-5.4Zm8.5 0h1.265V241h-1.265v-5.394L164.94 241h-1.265v-7.396h1.265v5.4l3.411-5.4Zm3.742 6.733a.8.8 0 0 1 .192-.547c.132-.146.328-.219.588-.219.259 0 .455.073.588.219a.772.772 0 0 1 .205.547c0 .21-.069.385-.205.526-.133.142-.329.212-.588.212-.26 0-.456-.07-.588-.212a.753.753 0 0 1-.192-.526Z" fill="#757575"/><rect width="270" height="120" rx="4" fill="#F5F4FA"/><path d="m167.316 73.338-18.469-18.604 2.05-10.097a4.654 4.654 0 0 0 1.659.319h.014a4.723 4.723 0 1 0-4.394-3.14l-10.85 1.325-17.698-17.791a1.17 1.17 0 0 0-.824-.35c-.306.002-.6.123-.817.34l-3.308 3.29a1.166 1.166 0 0 0 0 1.65l1.78 1.805c-6.897 12.683-4.657 28.39 5.511 38.638.094.09.202.161.32.213a6.677 6.677 0 0 0-.114 1.197v13.534h-14a5.841 5.841 0 0 0-5.834 5.833v2.333c0 .645.523 1.167 1.167 1.167h53.667c.644 0 1.166-.522 1.166-1.167V91.5a5.84 5.84 0 0 0-5.833-5.833h-14v-5.998c2.193.46 4.428.694 6.669.7a32.486 32.486 0 0 0 15.4-3.901l1.789 1.8c.217.221.514.347.824.35a1.17 1.17 0 0 0 .817-.34l3.308-3.29a1.166 1.166 0 0 0 0-1.65Zm-16.391-34.703a2.332 2.332 0 1 1 1.644 3.988h-.007a2.334 2.334 0 0 1-1.633-3.988h-.004Zm-2.747 7.666-1.309 6.444-2.571-2.587 3.88-3.857Zm-1.325-1.973-4.2 4.176-3.249-3.267 7.449-.909ZM152.509 88a3.5 3.5 0 0 1 3.5 3.5v1.167h-51.333V91.5a3.5 3.5 0 0 1 3.5-3.5h44.333Zm-16.333-4.667v2.334h-11.667v-2.334h11.667ZM124.509 81v-8.867c0-2.83 2.617-5.133 5.833-5.133 3.217 0 5.834 2.303 5.834 5.133V81h-11.667Zm14-3.71v-5.157c0-4.117-3.663-7.466-8.167-7.466a8.313 8.313 0 0 0-7.177 3.907 30.339 30.339 0 0 1-4.984-34.753l40.691 40.925a30.232 30.232 0 0 1-20.363 2.544Zm24.695-1.496-1.644-1.653-42.768-43.025-1.651-1.655 1.651-1.645 17.358 17.456c.008 0 .013.015.021.021l28.688 28.856-1.655 1.645Z" fill="#212121"/><path d="M130.353 69.333h-.011a3.5 3.5 0 1 0-.01 7h.01a3.5 3.5 0 0 0 .011-7Zm.816 4.328a1.165 1.165 0 1 1-1.643-1.655c.217-.216.51-.338.816-.34a1.167 1.167 0 0 1 .817 1.995h.01Z" fill="#2196F3"/></svg>